<svg id="Layer_1" data-name="Layer 1" xmlns="http://www.w3.org/2000/svg" viewBox="0 0 1000 372"><defs><style>.cls-1{opacity:0;}.cls-2{fill:#a474d6;}.cls-3,.cls-4{fill:#8d51cc;}.cls-3{fill-rule:evenodd;}.cls-5{fill:#fffbfa;}</style></defs><g id="Dark_BG" data-name="Dark BG"><rect id="Bounds" class="cls-1" width="1000" height="372"/><g id="Logo_-_Colour_-_Dark_BG" data-name="Logo - Colour - Dark BG"><path class="cls-2" d="M599.76,294.62a19.93,19.93,0,0,1-8.74-1.73,13.25,13.25,0,0,1-5.44-4.54,12.37,12.37,0,0,1-2.1-6.11h5.85a9,9,0,0,0,1.31,3.64,7.84,7.84,0,0,0,3.34,2.85,13.58,13.58,0,0,0,5.85,1.08,21.09,21.09,0,0,0,2.78-.22,14,14,0,0,0,3.19-.83,6.58,6.58,0,0,0,2.59-1.8,4.49,4.49,0,0,0,1.05-3.07,4.15,4.15,0,0,0-1.8-3.6,13.75,13.75,0,0,0-4.66-2q-2.85-.72-6-1.39a41.54,41.54,0,0,1-6-1.76,11.85,11.85,0,0,1-4.65-3.08,7.8,7.8,0,0,1-1.8-5.44,9.36,9.36,0,0,1,3.72-7.92q3.71-2.81,11-2.81a18.15,18.15,0,0,1,8.06,1.54,11.81,11.81,0,0,1,4.73,3.94,11.39,11.39,0,0,1,1.91,5.17h-5.7a6.29,6.29,0,0,0-2.36-4.12q-2.07-1.73-6.79-1.73-8.94,0-8.93,5.41a3.9,3.9,0,0,0,1.8,3.45,15,15,0,0,0,4.65,1.91q2.85.72,6,1.35a35.57,35.57,0,0,1,6,1.76,11.84,11.84,0,0,1,4.65,3.19,8.22,8.22,0,0,1,1.8,5.59,9.55,9.55,0,0,1-4.16,8.37Q606.73,294.61,599.76,294.62Z"/><path class="cls-2" d="M626.32,294V261.45h-7.66V256.5h7.66V243.07H632V256.5h8.62v4.95H632V294Z"/><path class="cls-2" d="M661.36,294.62a15.31,15.31,0,0,1-7.28-1.84,14.14,14.14,0,0,1-5.59-5.48,17.37,17.37,0,0,1-2.14-9V256.5H652v21.68a11.43,11.43,0,0,0,3,8.22,10,10,0,0,0,7.54,3.11,11.13,11.13,0,0,0,11.33-11.4V256.5h5.63V294h-5.63v-5.86a18.84,18.84,0,0,1-4.95,4.58A13.67,13.67,0,0,1,661.36,294.62Z"/><path class="cls-2" d="M705,294.62a17.17,17.17,0,0,1-15.9-9.61,22.34,22.34,0,0,1,0-19.54A17.23,17.23,0,0,1,705,255.9a16.6,16.6,0,0,1,8,1.8,15.22,15.22,0,0,1,5.44,4.88V241.5h5.63V294h-5.63v-6a15.48,15.48,0,0,1-5.44,4.8A16.49,16.49,0,0,1,705,294.62Zm.75-5.11a11.94,11.94,0,0,0,11.48-7.16,17.6,17.6,0,0,0,0-14.22,12.5,12.5,0,0,0-4.39-5.18,12.37,12.37,0,0,0-7.09-1.95,12.48,12.48,0,0,0-11.7,7.13,16.79,16.79,0,0,0,0,14.22,12.44,12.44,0,0,0,11.7,7.16Z"/><path class="cls-2" d="M733.61,250.2v-7.35h6.08v7.35Zm.22,43.82V256.5h5.63V294Z"/><path class="cls-2" d="M765.5,294.62a18.55,18.55,0,0,1-9.91-2.59,17.33,17.33,0,0,1-6.45-7,22.34,22.34,0,0,1,0-19.54,17.29,17.29,0,0,1,6.45-7,20.31,20.31,0,0,1,19.85,0,17.4,17.4,0,0,1,6.41,7,22.34,22.34,0,0,1,0,19.54,17.44,17.44,0,0,1-6.41,7A18.51,18.51,0,0,1,765.5,294.62Zm0-5.11a12.32,12.32,0,0,0,7.09-1.95,12.55,12.55,0,0,0,4.39-5.21,17.6,17.6,0,0,0,0-14.22,12.65,12.65,0,0,0-4.39-5.18A12.67,12.67,0,0,0,754,268.13a17.6,17.6,0,0,0,0,14.22,12,12,0,0,0,11.48,7.16Z"/><path class="cls-3" d="M460.75,139l-5.4-24.35L455.13,165a3.44,3.44,0,0,1-.05.45,7.26,7.26,0,0,1,1.74,1.21,6.85,6.85,0,1,1-9.89,0,6.33,6.33,0,0,1,1.79-1.28s0-.06,0-.09l.2-43.67h0v-7.09L443.44,139l-10.6,31.78L447.7,212h8.79l14.86-41.19Z"/><polygon class="cls-4" points="350.51 77.39 297.69 226.49 332.27 226.49 386.24 77.39 350.51 77.39"/><path class="cls-4" d="M866.56,223.79l59.2-54-59.2-54h-38L887,168.87l-58.52,54.92Z"/><path class="cls-4" d="M133.44,223.79l-59.2-54,59.2-54h38L113,168.87l58.52,54.92Z"/><path class="cls-5" d="M567.5,274.46,535.85,254l-25.22,11.35,0-.46a3.32,3.32,0,0,0-3.33-3.22,3.17,3.17,0,0,0-3.16,3.27l0,1.36a4.67,4.67,0,0,0-4.7-4.53l-143,1a.92.92,0,0,0-.93-.9l-2.74,0a5.45,5.45,0,0,0-5.42,5.61l0,.5-10.27.08a7,7,0,0,0-7,7.24v.12a7.37,7.37,0,0,0,7.39,7.14l10.27-.08v.5a5.72,5.72,0,0,0,5.73,5.54l2.74,0a.89.89,0,0,0,.88-.92h0l143-1a4.46,4.46,0,0,0,4.44-4.6l0,1.36A3.32,3.32,0,0,0,508,286.6a3.16,3.16,0,0,0,3.15-3.27v-.39l26.34,11.68Zm-214,12.33a3.87,3.87,0,0,1-3.87-3.74l-.43-15.5a3.69,3.69,0,0,1,3.66-3.79h1.84l.63,23ZM513,281.16l-.55-13.9,23.28-10.48,25.46,16.43-20.65-.09a1.16,1.16,0,0,0-.88.4,3.83,3.83,0,0,0-1-1.79,3.6,3.6,0,1,0,.21,5.19,3.5,3.5,0,0,0,.91-1.78,1.23,1.23,0,0,0,.9.41l20.65.09-24.16,16.21Z"/><polygon class="cls-5" points="290.12 247.84 229.74 77.39 193.99 77.39 268.93 285.24 303.43 285.24 290.13 247.82 290.12 247.84"/><path class="cls-5" d="M508.94,174a68.68,68.68,0,0,1-6.43,23,50.93,50.93,0,0,1-19.8,21.84q-12.84,7.65-29.94,7.65t-29.94-7.65A51,51,0,0,1,403,197a68.68,68.68,0,0,1-6.43-23l50.71,48.09h10.94Zm-30.62,8.31,19.47-18.37-19.47-18.37a55.36,55.36,0,0,1,2.76,18.37A55.31,55.31,0,0,1,478.32,182.28Zm-53.86-18.37a54.8,54.8,0,0,1,2.81-18.42l-19.52,18.42,19.52,18.42A54.75,54.75,0,0,1,424.46,163.91Zm33.78-58.15L509,153.87a67.24,67.24,0,0,0-6.44-23.05,52,52,0,0,0-19.8-21.72q-12.84-7.75-29.94-7.76t-29.94,7.76A52,52,0,0,0,403,130.82a67.46,67.46,0,0,0-6.44,23.05l50.72-48.11Z"/><path class="cls-5" d="M560.7,202.18q-2.15-2-2.14-6.08V77.38H534.7v121q0,13.29,7.21,19.36t18.9,6.08h15.53V204.2h-9.45C564.19,204.2,562.12,203.53,560.7,202.18Z"/><path class="cls-5" d="M676.06,77.38v43.54a34.83,34.83,0,0,0-14.63-14.41,46.06,46.06,0,0,0-22.06-5.17q-15.32,0-26.56,7.65t-17.33,21.72q-6.08,14.07-6.08,33.2t6,33.2q6,14.07,17.33,21.73t26.67,7.65A46.06,46.06,0,0,0,662,221a35.59,35.59,0,0,0,15-15.19l.68,18h22.28V77.38Zm-3.6,109q-3.6,9.47-10.35,14.41t-16.44,4.95q-14.4,0-23-11.25t-8.55-30.62q0-19.57,8.55-30.72t23-11.14q9.68,0,16.44,4.84t10.35,14.18q3.6,9.33,3.6,22.84Q676.06,177,672.46,186.42Z"/><path class="cls-5" d="M735.93,223.79V104h21.83l.91,31.74-2-.68q2.48-16.2,10-23.63T787,104h11.48v21.38H787q-9,0-15.08,2.93a19.28,19.28,0,0,0-9.12,9q-3,6.08-3,15.76v70.68Z"/></g></g></svg>